<svg xmlns="http://www.w3.org/2000/svg" xmlns:xlink="http://www.w3.org/1999/xlink" width="406" height="376" viewBox="0 0 406 376">
  <defs>
    <clipPath id="clip-path">
      <rect id="Rectangle_479" data-name="Rectangle 479" width="406" height="376" transform="translate(155 160)" fill="#fff" stroke="#707070" stroke-width="1"/>
    </clipPath>
  </defs>
  <g id="Mask_Group_105" data-name="Mask Group 105" transform="translate(-155 -160)" clip-path="url(#clip-path)">
    <g id="_404errorstreetsigncone_Converted_" data-name="404errorstreetsigncone [Converted]" transform="translate(155 192.961)">
      <g id="Group_3416" data-name="Group 3416">
        <g id="Group_3414" data-name="Group 3414" transform="translate(64.627)">
          <rect id="Rectangle_504" data-name="Rectangle 504" width="13.239" height="307.386" transform="translate(131.741)" fill="#37498c"/>
          <path id="Path_718" data-name="Path 718" d="M1048.623,307.437l-45.972,31.686-.314.209H806.859V275.516h195.478l25.511,17.583Z" transform="translate(-776.927 -254.505)" fill="#4757a1"/>
          <path id="Path_719" data-name="Path 719" d="M808.9,455.243h195.478V391.4H808.9L762.61,423.321Z" transform="translate(-762.61 -292)" fill="#4757a1"/>
          <path id="Path_720" data-name="Path 720" d="M974.941,391.323s-22.345,59.6-164.368,54.345l13.841,9.55h195.452V391.4Z" transform="translate(-778.128 -291.975)" fill="#37498c"/>
          <path id="Path_721" data-name="Path 721" d="M1083.742,401.457s-16.039,54.5-75.826,56.673l75.826.366Z" transform="translate(-841.978 -295.253)" fill="#2b3871"/>
          <g id="Group_3409" data-name="Group 3409" transform="translate(9.419 104.764)">
            <g id="Group_3408" data-name="Group 3408">
              <path id="Path_722" data-name="Path 722" d="M1000.925,401.946v47.908H815.886l-34.747-23.941,34.747-23.941h185.038m2.617-2.643H815.075l-38.541,26.557,38.541,26.557h188.466V399.33Z" transform="translate(-776.534 -399.33)" fill="#fff"/>
            </g>
          </g>
          <path id="Path_723" data-name="Path 723" d="M982.138,275.516s-33.256,59.918-175.279,54.659v9.184h195.452l46.312-31.921-46.312-31.921H982.138Z" transform="translate(-776.927 -254.505)" fill="#37498c"/>
          <path id="Path_724" data-name="Path 724" d="M1120.245,315.859l-45.972,31.686-46.05-.131c42.754-1.57,63.136-29.88,71.273-45.867Z" transform="translate(-848.549 -262.928)" fill="#2b3871"/>
          <g id="Group_3411" data-name="Group 3411" transform="translate(35.27 26.348)">
            <g id="Group_3410" data-name="Group 3410">
              <path id="Path_725" data-name="Path 725" d="M1002.4,286.023l34.747,23.941L1002.4,333.9H817.366V286.023H1002.4m.811-2.616H814.75v53.141h188.466l38.541-26.557-38.541-26.584Z" transform="translate(-814.75 -283.406)" fill="#fff"/>
            </g>
          </g>
          <rect id="Rectangle_505" data-name="Rectangle 505" width="13.239" height="5.73" transform="translate(131.741 84.827)" fill="#242850"/>
          <rect id="Rectangle_506" data-name="Rectangle 506" width="13.239" height="5.73" transform="translate(131.741 163.191)" fill="#242850"/>
          <rect id="Rectangle_507" data-name="Rectangle 507" width="5.154" height="144.195" transform="translate(139.825 163.191)" fill="#242850"/>
          <g id="Group_3412" data-name="Group 3412" transform="translate(104.712 116.983)">
            <path id="Path_726" data-name="Path 726" d="M938.338,435.5a5.978,5.978,0,0,0-2.381-.419h-.628v-14.26c0-2.276-1.02-3.428-3.009-3.428a2.3,2.3,0,0,0-1.622.628,16.311,16.311,0,0,0-1.622,1.91l-9.89,13.239c-.262.366-.5.654-.68.916l-.549.785a4.821,4.821,0,0,0-.419.811,2.065,2.065,0,0,0-.131.785,3.017,3.017,0,0,0,.942,2.329,4,4,0,0,0,2.773.837h9.184v3.3a3.4,3.4,0,0,0,.68,2.25,2.337,2.337,0,0,0,1.832.785,2.367,2.367,0,0,0,1.832-.759,3.3,3.3,0,0,0,.68-2.25v-3.3h.968a3.986,3.986,0,0,0,2.224-.523,1.961,1.961,0,0,0,.785-1.727A1.906,1.906,0,0,0,938.338,435.5Zm-8.033-10.518v10.126h-7.483Z" transform="translate(-917.406 -417.393)" fill="#fff"/>
            <path id="Path_727" data-name="Path 727" d="M968.9,420.149a8.169,8.169,0,0,0-2.826-1.858,9.677,9.677,0,0,0-3.558-.628,9.058,9.058,0,0,0-5.1,1.439,9.168,9.168,0,0,0-3.271,4.186,18,18,0,0,0-.942,3.925,37.845,37.845,0,0,0-.288,5.1,32.779,32.779,0,0,0,.262,4.082,16.262,16.262,0,0,0,.864,3.454,10.065,10.065,0,0,0,3.454,4.527,8.666,8.666,0,0,0,5.181,1.648,8.825,8.825,0,0,0,4.579-1.23,9.441,9.441,0,0,0,3.349-3.454,12.628,12.628,0,0,0,1.413-4.056A30.965,30.965,0,0,0,972.38,432c0-3.768-.471-6.724-1.439-8.791A10.091,10.091,0,0,0,968.9,420.149Zm-10.073,17.321a33.518,33.518,0,0,1-.419-5.7,22.668,22.668,0,0,1,.942-7.588,3.527,3.527,0,0,1,5.835-1.308,6.573,6.573,0,0,1,1.335,3.192,31.742,31.742,0,0,1,.419,5.547,34.262,34.262,0,0,1-.392,5.782,7.238,7.238,0,0,1-1.334,3.323,3.421,3.421,0,0,1-5.024.052A6.75,6.75,0,0,1,958.827,437.471Z" transform="translate(-928.894 -417.481)" fill="#fff"/>
            <path id="Path_728" data-name="Path 728" d="M1005.486,435.5a5.978,5.978,0,0,0-2.381-.419h-.628v-14.26c0-2.276-1.02-3.428-3.009-3.428a2.3,2.3,0,0,0-1.622.628,16.323,16.323,0,0,0-1.622,1.91l-9.89,13.239c-.262.366-.5.654-.68.916l-.549.785a4.816,4.816,0,0,0-.419.811,2.064,2.064,0,0,0-.131.785,3.017,3.017,0,0,0,.942,2.329,4,4,0,0,0,2.773.837h9.184v3.3a3.4,3.4,0,0,0,.68,2.25,2.337,2.337,0,0,0,1.831.785,2.367,2.367,0,0,0,1.832-.759,3.3,3.3,0,0,0,.68-2.25v-3.3h.968a3.986,3.986,0,0,0,2.224-.523,1.961,1.961,0,0,0,.785-1.727A1.866,1.866,0,0,0,1005.486,435.5Zm-8.033-10.518v10.126H989.97Z" transform="translate(-939.131 -417.393)" fill="#fff"/>
          </g>
          <g id="Group_3413" data-name="Group 3413" transform="translate(84.67 42.832)">
            <path id="Path_729" data-name="Path 729" d="M901.854,311.639h-9.733v5.233H901.1a2.131,2.131,0,0,1,1.465.445,1.536,1.536,0,0,1,.5,1.177,1.518,1.518,0,0,1-.471,1.177,2.039,2.039,0,0,1-1.491.471h-8.975v6.07h10.073a2.224,2.224,0,0,1,1.544.471,1.637,1.637,0,0,1,.523,1.256,1.619,1.619,0,0,1-.523,1.23,2.224,2.224,0,0,1-1.544.471H890.446a2.8,2.8,0,0,1-2.041-.628,2.775,2.775,0,0,1-.628-2.015V310.959a3.563,3.563,0,0,1,.288-1.518,1.735,1.735,0,0,1,.864-.863,3.592,3.592,0,0,1,1.518-.262h11.408a2.224,2.224,0,0,1,1.544.471,1.542,1.542,0,0,1,.5,1.2,1.506,1.506,0,0,1-.5,1.2A2.361,2.361,0,0,1,901.854,311.639Z" transform="translate(-887.777 -307.95)" fill="#fff"/>
            <path id="Path_730" data-name="Path 730" d="M922.97,320.5h-1.518v6.855a2.867,2.867,0,0,1-.6,1.989,2.031,2.031,0,0,1-1.544.628,1.981,1.981,0,0,1-1.6-.68,3.025,3.025,0,0,1-.576-1.962V310.92a2.733,2.733,0,0,1,.628-2.015,2.775,2.775,0,0,1,2.015-.628h7.038a21.943,21.943,0,0,1,2.486.131,6.675,6.675,0,0,1,1.858.5,5.487,5.487,0,0,1,1.779,1.2,5.011,5.011,0,0,1,1.177,1.832,6.278,6.278,0,0,1,.392,2.2,5.4,5.4,0,0,1-1.334,3.82,7.692,7.692,0,0,1-4.082,2.015,8.562,8.562,0,0,1,2.2,1.805,15.773,15.773,0,0,1,1.858,2.538,18.591,18.591,0,0,1,1.282,2.433,4.857,4.857,0,0,1,.471,1.491,1.5,1.5,0,0,1-.262.837,1.775,1.775,0,0,1-.733.654,2.393,2.393,0,0,1-1.073.235,2.064,2.064,0,0,1-1.23-.34,3.86,3.86,0,0,1-.863-.863c-.235-.34-.55-.863-.968-1.544l-1.727-2.878a16.022,16.022,0,0,0-1.675-2.407,4,4,0,0,0-1.491-1.125A4.932,4.932,0,0,0,922.97,320.5Zm2.486-8.948h-3.977v5.861h3.872a10.618,10.618,0,0,0,2.617-.262,3.161,3.161,0,0,0,1.622-.916,2.633,2.633,0,0,0,.549-1.779,2.834,2.834,0,0,0-.445-1.57,2.725,2.725,0,0,0-1.256-1.02A9.108,9.108,0,0,0,925.456,311.548Z" transform="translate(-897.276 -307.937)" fill="#fff"/>
            <path id="Path_731" data-name="Path 731" d="M954.649,320.5h-1.518v6.855a2.866,2.866,0,0,1-.6,1.989,2.031,2.031,0,0,1-1.544.628,1.981,1.981,0,0,1-1.6-.68,3.026,3.026,0,0,1-.576-1.962V310.92a2.733,2.733,0,0,1,.628-2.015,2.775,2.775,0,0,1,2.015-.628h7.038a21.943,21.943,0,0,1,2.486.131,6.676,6.676,0,0,1,1.858.5,5.487,5.487,0,0,1,1.779,1.2,5.012,5.012,0,0,1,1.177,1.832,6.279,6.279,0,0,1,.392,2.2,5.4,5.4,0,0,1-1.334,3.82,7.693,7.693,0,0,1-4.082,2.015,8.562,8.562,0,0,1,2.2,1.805,15.765,15.765,0,0,1,1.858,2.538,18.6,18.6,0,0,1,1.282,2.433,4.857,4.857,0,0,1,.471,1.491,1.5,1.5,0,0,1-.262.837,1.775,1.775,0,0,1-.733.654,2.393,2.393,0,0,1-1.073.235,2.064,2.064,0,0,1-1.23-.34,3.862,3.862,0,0,1-.864-.863c-.235-.34-.549-.863-.968-1.544l-1.727-2.878a16.026,16.026,0,0,0-1.675-2.407,4,4,0,0,0-1.491-1.125A4.933,4.933,0,0,0,954.649,320.5Zm2.486-8.948h-3.977v5.861h3.872a10.617,10.617,0,0,0,2.616-.262,3.161,3.161,0,0,0,1.622-.916,2.633,2.633,0,0,0,.55-1.779,2.833,2.833,0,0,0-.445-1.57,2.724,2.724,0,0,0-1.256-1.02A9.107,9.107,0,0,0,957.134,311.548Z" transform="translate(-907.526 -307.937)" fill="#fff"/>
            <path id="Path_732" data-name="Path 732" d="M989.461,307.775a11.493,11.493,0,0,1,5.7,1.334,8.787,8.787,0,0,1,3.611,3.82,13.05,13.05,0,0,1,1.23,5.835,14.372,14.372,0,0,1-.68,4.5,9.7,9.7,0,0,1-2.015,3.506,8.67,8.67,0,0,1-3.3,2.276,11.97,11.97,0,0,1-4.474.785,11.467,11.467,0,0,1-4.474-.811,8.958,8.958,0,0,1-5.285-5.809,14.569,14.569,0,0,1-.68-4.474,13.645,13.645,0,0,1,.706-4.5,9.569,9.569,0,0,1,2.041-3.48,8.6,8.6,0,0,1,3.271-2.2A11.281,11.281,0,0,1,989.461,307.775Zm6.149,10.963a10.1,10.1,0,0,0-.759-4.056,5.486,5.486,0,0,0-2.172-2.59,6.064,6.064,0,0,0-3.218-.89,5.547,5.547,0,0,0-2.381.5,4.975,4.975,0,0,0-1.884,1.413,7.066,7.066,0,0,0-1.256,2.381,10.444,10.444,0,0,0-.471,3.244,10.909,10.909,0,0,0,.471,3.3,7.16,7.16,0,0,0,1.282,2.433,5.272,5.272,0,0,0,1.91,1.439,5.95,5.95,0,0,0,2.381.471,5.653,5.653,0,0,0,5.259-3.4A9.273,9.273,0,0,0,995.61,318.738Z" transform="translate(-917.325 -307.775)" fill="#fff"/>
            <path id="Path_733" data-name="Path 733" d="M1021.216,320.5H1019.7v6.855a2.867,2.867,0,0,1-.6,1.989,2.031,2.031,0,0,1-1.544.628,1.981,1.981,0,0,1-1.6-.68,3.026,3.026,0,0,1-.576-1.962V310.92a2.734,2.734,0,0,1,.628-2.015,2.775,2.775,0,0,1,2.015-.628h7.039a21.944,21.944,0,0,1,2.486.131,6.674,6.674,0,0,1,1.858.5,5.488,5.488,0,0,1,1.779,1.2,5.01,5.01,0,0,1,1.177,1.832,6.277,6.277,0,0,1,.392,2.2,5.4,5.4,0,0,1-1.334,3.82,7.693,7.693,0,0,1-4.082,2.015,8.562,8.562,0,0,1,2.2,1.805,15.765,15.765,0,0,1,1.858,2.538,18.585,18.585,0,0,1,1.282,2.433,4.857,4.857,0,0,1,.471,1.491,1.5,1.5,0,0,1-.262.837,1.776,1.776,0,0,1-.733.654,2.394,2.394,0,0,1-1.073.235,2.064,2.064,0,0,1-1.23-.34,3.859,3.859,0,0,1-.864-.863c-.235-.34-.549-.863-.968-1.544l-1.727-2.878a16.026,16.026,0,0,0-1.675-2.407,4,4,0,0,0-1.491-1.125A4.932,4.932,0,0,0,1021.216,320.5Zm2.486-8.948h-3.977v5.861h3.872a10.617,10.617,0,0,0,2.617-.262,3.161,3.161,0,0,0,1.622-.916,2.633,2.633,0,0,0,.55-1.779,2.834,2.834,0,0,0-.445-1.57,2.724,2.724,0,0,0-1.256-1.02A9.108,9.108,0,0,0,1023.7,311.548Z" transform="translate(-929.063 -307.937)" fill="#fff"/>
          </g>
        </g>
        <g id="Group_3415" data-name="Group 3415" transform="translate(0 304.612)">
          <path id="Path_734" data-name="Path 734" d="M1022.377,700.339H798.2a2.747,2.747,0,0,1-2.747-2.747v-.079a2.747,2.747,0,0,1,2.747-2.747h224.181a2.747,2.747,0,0,1,2.747,2.747v.079A2.73,2.73,0,0,1,1022.377,700.339Z" transform="translate(-708.607 -694.765)" fill="#242850"/>
          <path id="Path_735" data-name="Path 735" d="M787.13,700.339H750.813a2.747,2.747,0,0,1-2.747-2.747v-.079a2.747,2.747,0,0,1,2.747-2.747H787.13a2.747,2.747,0,0,1,2.747,2.747v.079A2.764,2.764,0,0,1,787.13,700.339Z" transform="translate(-693.277 -694.765)" fill="#242850"/>
          <path id="Path_736" data-name="Path 736" d="M707.966,700.339H669.818a2.747,2.747,0,0,1-2.747-2.747v-.079a2.747,2.747,0,0,1,2.747-2.747h38.148a2.747,2.747,0,0,1,2.747,2.747v.079A2.764,2.764,0,0,1,707.966,700.339Z" transform="translate(-667.071 -694.765)" fill="#242850"/>
          <path id="Path_737" data-name="Path 737" d="M1186.181,700.339h-31.319a2.747,2.747,0,0,1-2.747-2.747v-.079a2.747,2.747,0,0,1,2.747-2.747h31.319a2.747,2.747,0,0,1,2.747,2.747v.079A2.747,2.747,0,0,1,1186.181,700.339Z" transform="translate(-824.006 -694.765)" fill="#242850"/>
          <path id="Path_738" data-name="Path 738" d="M1250.307,700.339H1226.5a2.747,2.747,0,0,1-2.747-2.747v-.079a2.747,2.747,0,0,1,2.747-2.747h23.81a2.747,2.747,0,0,1,2.748,2.747v.079A2.764,2.764,0,0,1,1250.307,700.339Z" transform="translate(-847.183 -694.765)" fill="#242850"/>
        </g>
      </g>
      <g id="Group_3420" data-name="Group 3420" transform="translate(79.437 186.87)">
        <g id="Group_3418" data-name="Group 3418" transform="translate(170.439)">
          <rect id="Rectangle_508" data-name="Rectangle 508" width="8.059" height="24.674" transform="translate(42.152 93.016)" fill="#37498c"/>
          <rect id="Rectangle_509" data-name="Rectangle 509" width="8.111" height="2.8" transform="translate(42.126 93.043)" fill="#242850"/>
          <path id="Path_739" data-name="Path 739" d="M1129.871,548.049v38.7l-27.342,27.342h-38.7l-27.368-27.342v-38.7l27.368-27.342h38.7Z" transform="translate(-1036.462 -520.707)" fill="#4757a1"/>
          <path id="Path_740" data-name="Path 740" d="M1134.189,554.031v38.7L1106.82,620.1h-38.7l-18.315-18.316c68.788,10.152,69.52-62.586,69.52-62.586Z" transform="translate(-1040.78 -526.689)" fill="#37498c"/>
          <path id="Path_741" data-name="Path 741" d="M1142.961,589.711s-13.161,48.824-66.04,46.7h38.7l27.369-27.369V589.711Z" transform="translate(-1049.553 -543.033)" fill="#2b3871"/>
          <path id="Path_742" data-name="Path 742" d="M1127.522,552.1v34.93l-24.7,24.7h-34.93l-24.7-24.7V552.1l24.7-24.7h34.93Z" transform="translate(-1038.64 -522.872)" fill="none" stroke="#fff" stroke-miterlimit="10" stroke-width="2.708"/>
          <rect id="Rectangle_510" data-name="Rectangle 510" width="3.244" height="24.674" transform="translate(46.966 93.016)" fill="#242850"/>
          <g id="Group_3417" data-name="Group 3417" transform="translate(19.414 35.113)">
            <path id="Path_743" data-name="Path 743" d="M1082.144,587.293a4.941,4.941,0,0,0-1.936-.34h-.5V575.388c0-1.858-.811-2.773-2.46-2.773a1.838,1.838,0,0,0-1.308.523,11.7,11.7,0,0,0-1.308,1.544l-8.033,10.728c-.209.288-.419.549-.549.733-.157.209-.314.419-.445.628a3.139,3.139,0,0,0-.34.654,1.757,1.757,0,0,0-.1.628,2.482,2.482,0,0,0,.759,1.884,3.3,3.3,0,0,0,2.25.68h7.457v2.669a2.614,2.614,0,0,0,.549,1.805,2.085,2.085,0,0,0,2.983,0,2.643,2.643,0,0,0,.549-1.832V590.59h.785a3.122,3.122,0,0,0,1.805-.419,1.573,1.573,0,0,0,.628-1.387A1.484,1.484,0,0,0,1082.144,587.293Zm-6.515-8.53v8.216h-6.07Z" transform="translate(-1065.163 -572.615)" fill="#fff"/>
            <path id="Path_744" data-name="Path 744" d="M1106.969,574.81a6.682,6.682,0,0,0-2.276-1.518,7.826,7.826,0,0,0-2.878-.523,6.917,6.917,0,0,0-6.8,4.579,13.961,13.961,0,0,0-.759,3.192,32.99,32.99,0,0,0-.235,4.134,26.325,26.325,0,0,0,.209,3.323,14.124,14.124,0,0,0,.706,2.8,8.113,8.113,0,0,0,2.8,3.663,7.024,7.024,0,0,0,4.213,1.334,7.248,7.248,0,0,0,3.715-.994,7.767,7.767,0,0,0,2.721-2.8,9.64,9.64,0,0,0,1.125-3.3,25.478,25.478,0,0,0,.314-4.291,17.459,17.459,0,0,0-1.177-7.143A10.153,10.153,0,0,0,1106.969,574.81Zm-8.19,14.051a27.537,27.537,0,0,1-.34-4.631,18.61,18.61,0,0,1,.759-6.149,2.644,2.644,0,0,1,2.643-1.91,2.574,2.574,0,0,1,2.067.863,5.681,5.681,0,0,1,1.1,2.59,25.843,25.843,0,0,1,.34,4.5,28.516,28.516,0,0,1-.314,4.71,5.86,5.86,0,0,1-1.073,2.695,2.758,2.758,0,0,1-4.082.026A5.591,5.591,0,0,1,1098.78,588.861Z" transform="translate(-1074.499 -572.665)" fill="#fff"/>
            <path id="Path_745" data-name="Path 745" d="M1136.6,587.293a4.942,4.942,0,0,0-1.936-.34h-.5V575.388c0-1.858-.811-2.773-2.459-2.773a1.839,1.839,0,0,0-1.308.523,11.713,11.713,0,0,0-1.308,1.544l-8.033,10.728c-.209.288-.419.549-.549.733-.157.209-.314.419-.445.628a3.151,3.151,0,0,0-.34.654,1.756,1.756,0,0,0-.1.628,2.482,2.482,0,0,0,.759,1.884,3.3,3.3,0,0,0,2.25.68h7.457v2.669a2.615,2.615,0,0,0,.549,1.805,2.085,2.085,0,0,0,2.983,0,2.643,2.643,0,0,0,.549-1.832V590.59h.785a3.122,3.122,0,0,0,1.805-.419,1.573,1.573,0,0,0,.628-1.387A1.485,1.485,0,0,0,1136.6,587.293Zm-6.515-8.53v8.216h-6.07Z" transform="translate(-1082.783 -572.615)" fill="#fff"/>
          </g>
        </g>
        <g id="Group_3419" data-name="Group 3419" transform="translate(0 32.916)">
          <path id="Path_746" data-name="Path 746" d="M850.866,647.363H799.9l.942-3.349,1.805-6.567,1.1-3.977,1.622-5.835,3.114-11.277,1.6-5.861,11.382-41.131h7.849l4.16,15.071,7.221,26.06,1.6,5.861,3.114,11.277,1.622,5.835,2.9,10.544Z" transform="translate(-789.483 -569.366)" fill="#4656a1"/>
          <path id="Path_747" data-name="Path 747" d="M850.866,654.584H799.9l.916-3.349,1.805-6.541c35.506-2.093,30.848-53.01,30.848-53.01l16.458,59.551Z" transform="translate(-789.483 -576.587)" fill="#38488c"/>
          <rect id="Rectangle_511" data-name="Rectangle 511" width="71.797" height="6.829" transform="translate(0 77.998)" fill="#38488c"/>
          <path id="Path_748" data-name="Path 748" d="M850.866,683.068H799.9l.942-3.349h49.085Z" transform="translate(-789.483 -605.07)" fill="#232851"/>
          <path id="Path_749" data-name="Path 749" d="M849.668,638.834s-1.073,22.528-26.95,27.683l34.59-.026Z" transform="translate(-796.867 -591.842)" fill="#2b3872"/>
          <path id="Path_750" data-name="Path 750" d="M846.389,636.031H812.584l1.6-5.861h30.613Z" transform="translate(-793.588 -589.039)" fill="#fff"/>
          <path id="Path_751" data-name="Path 751" d="M848.86,661.34H805.583l1.622-5.835h40.032Z" transform="translate(-791.323 -597.236)" fill="#fff"/>
          <path id="Path_752" data-name="Path 752" d="M844.665,684.67s-9.524,7.2-44.768,6.829H861.28V684.67Z" transform="translate(-789.483 -606.672)" fill="#2b3872"/>
        </g>
      </g>
    </g>
  </g>
</svg>
